<?xml version="1.0" standalone="no"?><!DOCTYPE svg PUBLIC "-//W3C//DTD SVG 1.1//EN" "http://www.w3.org/Graphics/SVG/1.1/DTD/svg11.dtd"><svg t="1713407433471" class="icon" viewBox="0 0 1177 1024" version="1.1" xmlns="http://www.w3.org/2000/svg" p-id="6490" xmlns:xlink="http://www.w3.org/1999/xlink" width="229.8828125" height="200"><path d="M1045.677961 13.663768A266.429271 266.429271 0 0 1 826.978241 437.217995a266.429271 266.429271 0 0 1 218.608633-423.645314z" fill="#FFECD2" p-id="6491"></path><path d="M826.978241 437.217995a266.429271 266.429271 0 0 1 218.608633-423.645314" fill="#F4D3A2" p-id="6492"></path><path d="M1038.391006 27.326808a252.766232 252.766232 0 0 0-204.307985 396.319234A252.766232 252.766232 0 0 0 1038.391006 27.326808zM829.98411 450.972121h-3.096956a13.571953 13.571953 0 0 1-10.930432-5.556303A280.092311 280.092311 0 0 1 1042.672092 0.000729h3.188043a13.845213 13.845213 0 0 1 10.748257 5.647389 280.001224 280.001224 0 0 1-226.624282 445.324003z" fill="#33363A" p-id="6493"></path><path d="M1003.686886 112.584175A163.956475 163.956475 0 0 1 869.060403 373.457143a163.956475 163.956475 0 0 1 134.626483-260.690794z" fill="#EFA3CC" p-id="6494"></path><path d="M996.582105 126.247214a150.293435 150.293435 0 0 0-120.416922 233.273629 150.293435 150.293435 0 0 0 120.416922-233.273629z m-125.699964 260.690795h-2.003912a13.389779 13.389779 0 0 1-10.839345-5.64739 177.619514 177.619514 0 0 1 143.735176-282.369484h2.003913a13.571953 13.571953 0 0 1 10.930431 5.556303 177.710601 177.710601 0 0 1-143.826263 282.369484z" fill="#33363A" p-id="6495"></path><path d="M131.802788 13.663768a266.429271 266.429271 0 0 0 218.608633 423.554227 266.429271 266.429271 0 0 0-218.608633-423.645314z" fill="#FFECD2" p-id="6496"></path><path d="M350.411421 437.217995a266.429271 266.429271 0 0 0-218.608633-423.645314" fill="#F4D3A2" p-id="6497"></path><path d="M138.816482 27.326808A252.766232 252.766232 0 0 0 343.397728 423.646042 252.766232 252.766232 0 0 0 138.816482 27.326808z m208.58907 423.645313A280.092311 280.092311 0 0 1 120.690183 5.648118a14.027387 14.027387 0 0 1 10.930431-5.647389h3.188043a280.092311 280.092311 0 0 1 226.71537 445.324002 13.480866 13.480866 0 0 1-10.930432 5.64739z" fill="#33363A" p-id="6498"></path><path d="M173.793863 112.584175A163.956475 163.956475 0 0 0 308.420346 373.457143a163.956475 163.956475 0 0 0-134.626483-260.872968z" fill="#EFA3CC" p-id="6499"></path><path d="M180.898644 126.247214a150.293435 150.293435 0 0 0 120.416922 233.273629 150.293435 150.293435 0 0 0-120.416922-233.273629z m125.608877 260.690795a177.619514 177.619514 0 0 1-143.735176-282.369484 13.480866 13.480866 0 0 1 10.839344-5.556303h2.003913a177.710601 177.710601 0 0 1 143.826263 282.369484 13.389779 13.389779 0 0 1-10.930432 5.64739z" fill="#33363A" p-id="6500"></path><path d="M1036.933615 669.307493c0 188.276685-200.391247 341.029467-448.238784 341.029467S140.456047 857.584178 140.456047 669.307493 341.211641 255.044134 588.694831 255.044134s448.238784 225.895587 448.238784 414.263359z" fill="#F4D3A2" p-id="6501"></path><path d="M1036.933615 669.307493c0 188.276685-200.391247 341.029467-448.238784 341.029467S140.456047 857.584178 140.456047 669.307493s200.391247-318.166648 448.238784-318.166648 448.238784 129.798876 448.238784 318.166648z" fill="#F4D3A2" p-id="6502"></path><path d="M1036.933615 669.307493c0 188.276685-200.391247 341.029467-448.238784 341.029467S140.456047 857.584178 140.456047 669.307493s57.111505 167.05343 448.238784 167.05343 448.238784-355.512289 448.238784-167.05343z" fill="#E2BF91" p-id="6503"></path><path d="M588.694831 268.889347c-240.65167 0-434.575745 219.064068-434.575745 400.782494s195.017118 327.366428 434.575745 327.366428 434.575745-146.832132 434.575745-327.366428-193.832988-400.782494-434.575745-400.782494z m0 755.110653c-255.043405 0-461.901824-159.128867-461.901824-354.692507 0-193.741901 206.038637-428.108573 461.901824-428.108573 118.413009 0 234.822107 49.824551 326.546645 140.273873 84.801932 83.617802 135.355179 191.282554 135.355179 287.470352 0 196.383422-207.222767 355.056855-461.901824 355.056855z" fill="#33363A" p-id="6504"></path><path d="M683.789586 781.162244c0 12.661083-42.71977 14.938257-95.459103 14.938256s-95.459103-2.277173-95.459103-14.938256 42.71977-45.543465 95.459103-45.543466 95.459103 32.791295 95.459103 45.543466z" fill="#F4D3A2" p-id="6505"></path><path d="M506.53442 657.557279a13.754126 13.754126 0 0 1-9.108693-3.734564L381.01663 545.06492a13.66304 13.66304 0 0 1 18.67282-19.948038l116.135837 108.757795a13.571953 13.571953 0 0 1 0.637608 19.310429 13.389779 13.389779 0 0 1-9.928475 4.372173zM670.946329 657.557279a13.66304 13.66304 0 0 1-9.108693-23.682602l115.862576-108.757795a13.754126 13.754126 0 0 1 19.310429 0.637609 13.571953 13.571953 0 0 1-0.637609 19.310429L680.237196 653.822715a13.571953 13.571953 0 0 1-9.290867 3.734564z" fill="#33363A" p-id="6506"></path><path d="M855.943885 933.732852l204.672332-13.9363-12.661083-80.42976 115.862575-51.008681-64.216285-109.031056 57.293679-57.931287-157.944738-130.891919-133.442353 134.899744 7.833476 6.467172-82.433672 36.252598 45.634553 77.514978-10.11065 0.637608 29.512166 187.456903z" fill="#E2BF91" p-id="6507"></path><path d="M856.217146 947.304805a13.66304 13.66304 0 0 1-0.91087-27.326079l189.825163-12.934345-10.38391-65.764763a13.66304 13.66304 0 0 1 8.01565-14.664996l101.744101-44.723683-56.38281-95.823451a13.480866 13.480866 0 0 1 2.003913-16.486734l46.818682-47.365204L990.20602 500.978846a13.66304 13.66304 0 0 1 17.488691-21.041081L1165.912709 610.920771a13.754126 13.754126 0 0 1 4.918694 9.837388 13.571953 13.571953 0 0 1-3.916738 10.292823l-49.915638 50.46216 58.842157 100.195623a13.480866 13.480866 0 0 1 1.18413 11.203693 13.9363 13.9363 0 0 1-7.469128 8.28891l-106.207361 46.727596 11.021519 70.045849a13.207605 13.207605 0 0 1-2.823695 10.657171 13.571953 13.571953 0 0 1-9.746302 5.100868L856.854754 947.304805z" fill="#33363A" p-id="6508"></path><path d="M321.536864 933.732852l-204.763419-13.9363 12.661083-80.42976-115.771488-51.008681 64.216285-109.031056-57.384766-57.931287L178.530384 490.503849l133.442353 134.899744-7.833476 6.467172 82.342585 36.252598-45.634553 77.514978 10.201737 0.637608-29.512166 187.456903z" fill="#E2BF91" p-id="6509"></path><path d="M321.536864 947.304805h-1.001956l-204.672333-13.936301a13.571953 13.571953 0 0 1-9.746301-5.100868 13.9363 13.9363 0 0 1-2.823695-10.657171l11.021519-70.045849L8.197824 800.928108a13.66304 13.66304 0 0 1-6.284998-19.492604l58.842157-100.195623-49.915638-50.188899a13.207605 13.207605 0 0 1-3.916738-10.292823 13.480866 13.480866 0 0 1 4.918694-9.837388L169.786038 480.028852a13.66304 13.66304 0 1 1 17.397604 20.949994L40.715858 622.397724l46.909769 47.365204a13.66304 13.66304 0 0 1 2.003912 16.486734L33.24673 782.073113l101.744101 44.723683a13.845213 13.845213 0 0 1 8.01565 14.664996l-10.38391 65.764763L322.447734 919.978726a13.66304 13.66304 0 0 1-0.91087 27.326079z" fill="#33363A" p-id="6510"></path><path d="M441.498352 706.106613a72.869544 72.869544 0 1 1-72.869545-72.869544 72.869544 72.869544 0 0 1 72.869545 72.869544z" fill="#CC4306" p-id="6511"></path><path d="M441.498352 706.106613c0 40.533684-32.791295 15.12043-72.869545 15.12043s-73.780414 25.686514-73.780413-15.12043a73.324979 73.324979 0 1 1 146.649958 0z" fill="#33363A" p-id="6512"></path><path d="M368.173373 646.717934A59.661939 59.661939 0 1 0 428.108573 706.106613 59.753026 59.753026 0 0 0 368.173373 646.717934z m0 146.649958A86.988019 86.988019 0 1 1 455.434652 706.106613a87.079105 87.079105 0 0 1-87.261279 86.988018z" fill="#33363A" p-id="6513"></path><path d="M331.7386 682.241837m-29.876513 0a29.876513 29.876513 0 1 0 59.753027 0 29.876513 29.876513 0 1 0-59.753027 0Z" fill="#FFFFFF" p-id="6514"></path><path d="M331.647514 666.028364a16.213474 16.213474 0 1 0 16.30456 16.213473 16.213474 16.213474 0 0 0-16.30456-16.213473z m0 59.753026a43.539553 43.539553 0 1 1 43.630639-43.539553 43.539553 43.539553 0 0 1-43.630639 43.539553z" fill="#33363A" p-id="6515"></path><path d="M882.632355 706.106613a73.324979 73.324979 0 1 1-73.324979-72.869544 73.324979 73.324979 0 0 1 73.324979 72.869544z" fill="#CC4306" p-id="6516"></path><path d="M882.632355 706.106613c0 40.533684-32.882382 15.12043-73.324979 15.12043s-72.869544 25.413254-72.869544-15.12043a73.324979 73.324979 0 0 1 146.649958 0z" fill="#33363A" p-id="6517"></path><path d="M809.307376 646.717934a59.661939 59.661939 0 1 0 59.66194 59.66194A59.753026 59.753026 0 0 0 809.307376 646.717934z m0 146.649958a86.988019 86.988019 0 1 1 86.988019-86.988018 87.079105 87.079105 0 0 1-86.988019 86.714757z" fill="#33363A" p-id="6518"></path><path d="M772.781517 682.241837m-29.876513 0a29.876513 29.876513 0 1 0 59.753026 0 29.876513 29.876513 0 1 0-59.753026 0Z" fill="#FFFFFF" p-id="6519"></path><path d="M772.781517 666.028364a16.213474 16.213474 0 1 0 16.213474 16.213473 16.213474 16.213474 0 0 0-16.213474-16.213473z m0 59.753026a43.539553 43.539553 0 1 1 43.539553-43.539553 43.63064 43.63064 0 0 1-43.539553 43.539553z" fill="#33363A" p-id="6520"></path><path d="M471.830299 843.101356a116.864532 72.231936 0 1 0 233.729064 0 116.864532 72.231936 0 1 0-233.729064 0Z" fill="#FFCAE8" p-id="6521"></path><path d="M705.559363 843.101356c0 39.896076-52.283898 72.231936-116.864532 72.231936S471.830299 882.997432 471.830299 843.101356s52.374985-9.108693 116.864532-9.108693 116.864532-30.787382 116.864532 9.108693z" fill="#EFA3CC" p-id="6522"></path><path d="M588.694831 784.53246c-55.927375 0-103.201492 26.779558-103.201492 58.568896S532.767456 901.761339 588.694831 901.761339 692.260671 874.890695 692.260671 843.101356s-47.547378-58.568896-103.56584-58.568896z m0 144.463872c-72.869544 0-130.527571-37.709989-130.527571-85.894976s57.384766-85.894975 130.527571-85.894975S719.58675 794.91637 719.58675 843.101356 661.928723 929.087419 588.694831 929.087419z" fill="#33363A" p-id="6523"></path><path d="M556.08571 876.712434a13.66304 13.66304 0 0 1-13.66304-13.66304v-36.434772a13.66304 13.66304 0 0 1 27.32608 0v36.434772a13.66304 13.66304 0 0 1-13.66304 13.66304zM621.395039 876.712434a13.66304 13.66304 0 0 1-13.66304-13.66304v-36.434772a13.66304 13.66304 0 1 1 27.32608 0v36.434772a13.66304 13.66304 0 0 1-13.66304 13.66304z" fill="#33363A" p-id="6524"></path><path d="M851.662799 367.536493l-85.894975-191.191467-82.160412 36.890207-94.912581-94.912582-94.912581 94.912582-82.069325-36.890207-85.986062 191.191467 191.191467 85.894975 4.281086-9.473041 67.495415 67.495416 67.495415-67.495416 4.281086 9.473041 191.191467-85.894975z" fill="#FFECD2" p-id="6525"></path><path d="M683.607412 373.366056L588.694831 278.453475 493.78225 373.366056l-82.069325-36.890206-26.050862 57.931287 131.256267 59.024331 4.281086-9.473041 67.495415 67.495416 67.495415-67.495416 4.281086 9.473041 131.347354-59.024331-26.050862-57.931287-82.160412 36.890206z" fill="#F4D3A2" p-id="6526"></path><path d="M851.753886 381.199532a13.571953 13.571953 0 0 1-12.47891-7.742389l-80.338672-179.076905-69.681502 31.333904a13.845213 13.845213 0 0 1-15.211517-2.823695l-85.257367-85.257367-85.257367 85.257367a13.66304 13.66304 0 0 1-15.211517 2.823695L418.99988 194.380238 338.205772 373.457143a13.66304 13.66304 0 1 1-24.866732-11.203692l85.894976-191.282554a13.66304 13.66304 0 0 1 7.560215-7.195867 13.480866 13.480866 0 0 1 10.474997 0l73.59824 33.064555 88.172148-88.263235a13.571953 13.571953 0 0 1 19.31043 0l88.263235 88.263235L760.211521 163.957203a13.298692 13.298692 0 0 1 10.38391 0 13.845213 13.845213 0 0 1 7.651302 7.195868l85.894975 191.282554a13.754126 13.754126 0 0 1-6.831519 18.217386 13.571953 13.571953 0 0 1-5.556303 0.546521z" fill="#33363A" p-id="6527"></path><path d="M445.597263 250.763048l-197.294291-56.291723-15.393691 79.974325-126.246486 8.653258 23.409342 124.33366-73.59824 35.068468 104.203448 176.708645 171.334516-81.613889-5.191955-8.744346 89.720627-6.102824-16.577822-88.445409 9.746302 2.823695 35.88825-186.36386z" fill="#FFECD2" p-id="6528"></path><path d="M359.155766 372.090839l-126.246485 8.653259 23.409341 124.33366-73.59824 35.068468 31.607165 53.559115 117.684314-56.109549-5.191955-8.744346 89.720627-6.102824-16.577822-88.445409 9.746302 2.823695 24.684558-127.977138-59.844113-17.124343-15.393692 80.065412z" fill="#F4D3A2" p-id="6529"></path><path d="M160.677345 632.872721a13.571953 13.571953 0 0 1-11.750214-6.740433L44.723683 449.423643a13.571953 13.571953 0 0 1 5.92065-19.219342l63.760852-30.514122-21.132168-114.040837a13.480866 13.480866 0 0 1 2.550434-10.839344 13.298692 13.298692 0 0 1 9.928475-5.283042l115.680402-8.01565 13.389779-69.681502a13.66304 13.66304 0 0 1 6.284998-9.108693 13.9363 13.9363 0 0 1 10.930431-1.548478l197.294292 56.38281a13.66304 13.66304 0 1 1-7.469129 26.597384l-182.993643-52.466072L245.934712 277.087171a13.66304 13.66304 0 0 1-12.478909 11.021518l-110.852795 7.560216 20.49456 109.304316a13.66304 13.66304 0 0 1-7.469129 14.84717l-60.117374 28.601296 96.552146 163.956475a13.571953 13.571953 0 0 1-11.750214 20.585646z" fill="#33363A" p-id="6530"></path><path d="M731.883486 250.763048l197.294291-56.291723 15.393691 79.974325 126.246486 8.653258-23.409342 124.33366 73.507153 35.068468-104.203448 176.708645-171.243429-81.613889 5.191955-8.744346-89.811714-6.102824 16.668909-88.445409-9.837389 2.823695-35.797163-186.36386z" fill="#FFECD2" p-id="6531"></path><path d="M818.324983 372.090839l126.246485 8.653259-23.409341 124.33366 73.507153 35.068468-31.607165 53.559115-117.593227-56.109549 5.191955-8.744346-89.811714-6.102824 16.668909-88.445409-9.837389 2.823695-24.593471-127.977138 59.844113-17.124343 15.393692 80.065412z" fill="#F4D3A2" p-id="6532"></path><path d="M1016.712317 632.872721a12.843257 12.843257 0 0 1-6.922607-1.912826 13.66304 13.66304 0 0 1-4.827607-18.217386l96.643233-163.956474-60.117374-28.601296a13.9363 13.9363 0 0 1-7.560215-14.938257l20.585646-109.304317-110.852794-7.560215a13.66304 13.66304 0 0 1-12.47891-11.021518l-12.569996-65.400416L735.61805 264.152827a13.66304 13.66304 0 1 1-7.469129-26.233036l197.294292-56.656071a13.9363 13.9363 0 0 1 10.930431 1.548478 13.480866 13.480866 0 0 1 6.193912 9.108693l13.845213 69.590415 115.771488 7.924563a13.571953 13.571953 0 0 1 11.750214 16.213473l-21.405428 113.94975 63.760851 30.514122a13.9363 13.9363 0 0 1 7.195868 8.379998 13.571953 13.571953 0 0 1-1.275217 10.930431l-104.203449 176.708645a13.571953 13.571953 0 0 1-11.294779 6.740433z" fill="#33363A" p-id="6533"></path></svg>